<svg id="svg" version="1.1" xmlns="http://www.w3.org/2000/svg" xmlns:xlink="http://www.w3.org/1999/xlink" width="400" height="225" viewBox="0, 0, 400,225"><g id="svgg"><path id="path0" d="M0.000 112.500 L 0.000 225.000 200.000 225.000 L 400.000 225.000 400.000 112.500 L 400.000 0.000 200.000 0.000 L 0.000 0.000 0.000 112.500 M15.104 14.710 C 17.646 15.166,17.597 15.090,17.064 17.718 C 16.529 20.355,16.148 20.977,15.643 20.034 C 15.451 19.675,15.495 19.369,16.142 16.543 C 16.232 16.148,16.098 16.081,14.735 15.839 C 12.711 15.480,12.292 15.301,12.292 14.797 C 12.292 14.273,12.612 14.264,15.104 14.710 M23.123 15.204 C 23.380 15.685,19.552 18.438,18.821 18.297 C 17.981 18.135,18.469 17.481,20.417 16.160 C 22.603 14.677,22.803 14.606,23.123 15.204 M76.652 18.466 C 76.936 18.827,77.083 19.320,77.083 19.908 C 77.083 20.741,77.132 20.817,77.799 21.037 C 79.962 21.751,80.036 23.807,77.923 24.477 C 77.587 24.584,77.552 24.694,77.718 25.129 C 78.504 27.196,77.383 28.375,75.461 27.502 L 74.569 27.097 73.623 27.819 C 72.099 28.982,71.042 28.438,71.042 26.491 C 71.042 25.487,71.025 25.460,70.334 25.330 C 69.347 25.145,68.542 24.462,68.542 23.812 C 68.542 23.299,69.776 21.875,70.220 21.875 C 70.328 21.875,70.354 21.335,70.279 20.622 C 70.071 18.628,70.928 18.050,72.731 18.970 L 73.570 19.398 74.390 18.657 C 75.375 17.767,76.057 17.710,76.652 18.466 M74.743 19.150 L 74.063 19.758 74.568 20.296 C 75.364 21.143,76.459 21.062,76.455 20.156 C 76.448 18.427,75.907 18.109,74.743 19.150 M70.972 19.306 C 70.776 19.502,70.805 20.883,71.013 21.210 C 71.369 21.773,73.125 20.701,73.125 19.921 C 73.125 19.514,71.289 18.989,70.972 19.306 M73.438 20.625 C 73.367 20.740,73.507 20.833,73.750 20.833 C 73.993 20.833,74.133 20.740,74.063 20.625 C 73.992 20.510,73.851 20.417,73.750 20.417 C 73.649 20.417,73.508 20.510,73.438 20.625 M73.101 21.597 C 72.520 21.752,72.023 23.322,72.390 23.841 C 73.253 25.061,73.251 25.060,74.292 24.868 C 75.185 24.704,75.307 24.609,75.643 23.817 L 76.012 22.946 75.454 22.210 C 74.898 21.476,74.216 21.299,73.101 21.597 M75.625 21.537 C 75.625 21.580,75.766 21.732,75.938 21.875 C 76.193 22.087,76.250 22.073,76.250 21.796 C 76.250 21.610,76.109 21.458,75.938 21.458 C 75.766 21.458,75.625 21.494,75.625 21.537 M76.787 22.174 C 76.692 22.682,76.763 23.066,77.039 23.518 L 77.424 24.151 78.191 23.519 C 79.076 22.790,79.149 22.420,78.490 22.009 C 77.432 21.349,76.933 21.397,76.787 22.174 M71.551 22.101 C 71.474 22.226,71.503 22.420,71.615 22.532 C 71.748 22.665,71.858 22.586,71.932 22.305 C 72.050 21.853,71.791 21.714,71.551 22.101 M74.619 22.344 C 75.208 22.819,75.235 23.326,74.697 23.864 C 74.159 24.401,73.652 24.375,73.177 23.785 C 72.461 22.896,73.730 21.628,74.619 22.344 M69.979 22.768 C 69.030 23.406,68.951 24.044,69.768 24.467 C 71.118 25.165,71.866 24.310,71.138 22.902 C 70.761 22.172,70.850 22.182,69.979 22.768 M76.185 23.978 C 76.034 24.555,76.070 24.615,76.437 24.388 C 76.634 24.267,76.656 24.111,76.513 23.855 C 76.332 23.532,76.298 23.544,76.185 23.978 M71.800 24.688 C 71.717 24.904,71.814 25.000,72.115 25.000 C 72.479 25.000,72.508 24.948,72.292 24.688 C 72.149 24.516,72.007 24.375,71.976 24.375 C 71.945 24.375,71.866 24.516,71.800 24.688 M76.290 25.075 C 75.351 25.348,74.792 26.361,75.350 26.779 C 76.395 27.562,77.302 27.380,77.271 26.394 C 77.230 25.079,77.060 24.851,76.290 25.075 M74.103 25.550 C 73.943 25.709,74.120 26.042,74.365 26.042 C 74.461 26.042,74.593 25.901,74.659 25.729 C 74.778 25.419,74.366 25.287,74.103 25.550 M71.667 26.441 C 71.667 28.075,72.214 28.352,73.382 27.309 L 74.063 26.701 73.557 26.163 C 72.695 25.245,71.667 25.396,71.667 26.441 M105.511 33.696 C 107.596 36.109,107.638 35.933,104.252 38.885 C 100.708 41.976,100.863 41.953,98.929 39.682 C 96.588 36.935,96.461 37.458,100.273 34.174 C 103.590 31.315,103.465 31.327,105.511 33.696 M103.177 33.063 C 102.833 33.191,102.846 33.640,103.202 33.935 C 103.638 34.297,104.147 33.634,103.732 33.244 C 103.570 33.091,103.320 33.010,103.177 33.063 M101.898 34.243 C 101.540 34.674,102.165 35.156,102.607 34.790 C 102.917 34.532,102.699 33.958,102.292 33.958 C 102.205 33.958,102.028 34.087,101.898 34.243 M104.028 34.493 C 103.839 34.987,104.283 35.336,104.681 35.005 C 104.928 34.800,104.949 34.669,104.769 34.452 C 104.457 34.076,104.183 34.091,104.028 34.493 M100.717 35.228 C 100.639 35.354,100.704 35.585,100.861 35.742 C 101.222 36.103,101.777 35.796,101.599 35.334 C 101.453 34.952,100.926 34.889,100.717 35.228 M102.919 35.310 C 102.596 35.699,102.989 36.289,103.453 36.111 C 103.829 35.967,103.835 35.538,103.465 35.231 C 103.248 35.051,103.118 35.070,102.919 35.310 M105.029 35.486 C 104.624 35.974,105.208 36.553,105.724 36.176 C 106.069 35.923,106.089 35.828,105.852 35.543 C 105.514 35.136,105.330 35.123,105.029 35.486 M99.821 36.023 C 99.644 36.133,99.591 36.362,99.679 36.641 C 99.846 37.166,100.060 37.200,100.425 36.760 C 100.767 36.349,100.272 35.745,99.821 36.023 M101.897 36.237 C 101.542 36.456,101.744 37.083,102.169 37.083 C 102.626 37.083,102.797 36.666,102.473 36.342 C 102.294 36.163,102.079 36.124,101.897 36.237 M102.839 37.427 C 101.355 38.710,101.309 38.783,101.747 39.147 C 102.097 39.437,104.843 37.189,104.746 36.691 C 104.629 36.088,104.195 36.256,102.839 37.427 M98.585 37.135 C 98.276 37.508,98.613 38.014,99.057 37.843 C 99.431 37.700,99.420 37.063,99.042 36.937 C 98.916 36.895,98.710 36.985,98.585 37.135 M100.648 37.368 C 100.290 37.799,100.915 38.281,101.357 37.915 C 101.667 37.657,101.449 37.083,101.042 37.083 C 100.955 37.083,100.778 37.212,100.648 37.368 M99.585 38.227 C 99.262 38.616,99.655 39.206,100.119 39.028 C 100.496 38.883,100.502 38.455,100.132 38.148 C 99.915 37.968,99.784 37.987,99.585 38.227 M100.496 39.469 C 100.349 39.851,100.563 40.208,100.938 40.208 C 101.366 40.208,101.529 39.815,101.242 39.470 C 100.922 39.084,100.644 39.084,100.496 39.469 M30.368 55.677 C 30.727 56.121,31.848 58.916,31.719 59.045 C 31.320 59.444,30.890 59.065,30.430 57.907 C 29.789 56.294,29.951 56.331,27.686 57.279 C 25.405 58.234,25.458 58.152,26.137 59.688 C 26.769 61.117,26.757 60.979,26.272 61.238 C 25.842 61.468,24.407 58.469,24.647 57.843 C 24.896 57.194,30.024 55.252,30.368 55.677 M29.792 58.159 C 29.792 58.499,29.372 59.167,29.159 59.167 C 29.049 59.167,28.958 58.991,28.958 58.776 C 28.958 58.560,28.819 58.269,28.648 58.127 C 28.478 57.985,28.386 57.792,28.444 57.697 C 28.581 57.476,29.792 57.891,29.792 58.159 M27.539 58.635 C 27.502 58.834,27.634 59.114,27.831 59.258 C 28.324 59.619,27.889 59.850,27.205 59.590 C 26.585 59.354,26.587 59.361,26.911 58.650 C 27.178 58.064,27.644 58.053,27.539 58.635 M32.816 59.385 C 33.029 60.057,32.691 60.281,29.349 61.677 C 26.932 62.687,26.127 62.941,25.863 62.775 C 24.997 62.230,25.364 61.950,28.897 60.462 C 32.949 58.755,32.642 58.839,32.816 59.385 M95.716 66.110 C 96.201 66.465,96.237 66.400,92.974 71.198 C 90.796 74.401,90.308 75.000,89.875 75.000 C 88.675 75.000,88.758 74.811,92.242 69.631 C 94.810 65.814,95.020 65.602,95.716 66.110 M90.414 66.768 C 90.827 67.265,90.520 67.650,89.166 68.333 L 87.897 68.974 88.565 70.189 C 89.244 71.424,89.263 71.980,88.634 72.221 C 87.997 72.465,85.983 69.011,86.389 68.368 C 86.999 67.400,89.962 66.223,90.414 66.768 M98.052 70.471 C 98.529 71.360,98.874 72.256,98.820 72.462 C 98.677 73.011,95.395 74.600,94.936 74.343 C 94.216 73.940,94.531 73.366,95.833 72.708 C 97.238 71.999,97.276 71.896,96.557 70.729 C 95.794 69.490,95.881 68.667,96.762 68.793 C 97.052 68.835,97.461 69.367,98.052 70.471 M40.841 101.792 C 40.982 102.161,41.151 102.294,41.372 102.209 C 41.731 102.072,42.487 102.409,42.814 102.853 C 42.930 103.010,43.248 103.112,43.521 103.079 C 44.204 102.999,44.315 103.483,43.679 103.773 C 42.960 104.100,43.224 104.928,44.015 104.831 C 44.753 104.742,44.926 105.156,44.275 105.453 C 43.945 105.603,43.778 105.813,43.846 105.992 C 43.908 106.152,43.958 106.368,43.958 106.470 C 43.958 106.573,44.240 106.600,44.583 106.531 C 45.318 106.384,45.501 106.962,44.792 107.188 C 44.503 107.279,44.375 107.503,44.375 107.916 C 44.375 108.491,43.920 109.167,43.532 109.167 C 43.428 109.167,43.400 109.448,43.469 109.792 C 43.616 110.526,43.038 110.710,42.813 110.000 C 42.575 109.253,41.707 109.575,41.746 110.396 C 41.780 111.076,41.297 111.198,41.134 110.549 C 40.945 109.794,40.104 110.115,40.104 110.943 C 40.104 111.689,39.639 111.858,39.468 111.175 C 39.362 110.755,39.213 110.657,38.697 110.672 C 38.268 110.684,37.931 110.535,37.675 110.218 C 37.395 109.873,37.158 109.780,36.793 109.872 C 36.060 110.056,35.879 109.426,36.588 109.157 C 36.955 109.018,37.086 108.849,37.000 108.626 C 36.931 108.446,36.875 108.216,36.875 108.113 C 36.875 108.011,36.594 107.983,36.250 108.052 C 35.516 108.199,35.332 107.621,36.042 107.396 C 36.482 107.256,36.535 107.109,36.335 106.589 C 36.247 106.359,36.041 106.302,35.606 106.389 C 34.844 106.542,34.733 105.908,35.489 105.719 C 35.870 105.623,35.957 105.486,35.884 105.102 C 35.819 104.762,35.959 104.438,36.334 104.064 C 36.739 103.659,36.845 103.390,36.750 103.010 C 36.651 102.619,36.704 102.500,36.976 102.500 C 37.171 102.500,37.381 102.692,37.442 102.928 C 37.626 103.628,38.438 103.379,38.438 102.622 C 38.438 101.847,38.895 101.681,39.154 102.362 C 39.449 103.138,40.297 102.892,40.134 102.078 C 39.945 101.129,40.503 100.903,40.841 101.792 M39.442 104.235 C 38.390 104.599,37.466 104.960,37.389 105.039 C 37.260 105.171,38.162 108.204,38.563 108.984 C 38.793 109.432,42.916 108.224,42.917 107.709 C 42.917 107.230,41.651 103.539,41.493 103.558 C 41.417 103.567,40.494 103.872,39.442 104.235 M41.929 105.874 C 42.237 106.812,42.468 107.596,42.442 107.615 C 42.128 107.847,39.047 108.709,38.944 108.594 C 38.766 108.394,37.917 105.835,37.917 105.498 C 37.917 105.282,40.499 104.233,41.154 104.183 C 41.273 104.174,41.622 104.935,41.929 105.874 M110.605 122.490 C 113.022 123.723,114.398 127.371,113.262 129.531 C 112.803 130.405,112.586 130.384,111.733 129.387 C 111.346 128.936,110.844 128.507,110.616 128.435 C 110.208 128.305,110.208 128.294,110.594 127.745 C 111.172 126.925,111.304 126.326,111.027 125.789 C 110.638 125.034,109.959 124.375,109.571 124.375 C 109.375 124.375,109.061 124.141,108.873 123.854 C 108.407 123.142,107.993 123.201,107.723 124.019 C 107.594 124.407,107.225 124.864,106.869 125.075 C 106.523 125.279,106.094 125.669,105.916 125.942 C 105.737 126.214,105.270 126.543,104.879 126.672 C 104.068 126.940,103.983 127.269,104.583 127.813 C 104.813 128.020,105.000 128.349,105.000 128.544 C 105.000 129.715,106.800 130.600,107.988 130.013 C 108.452 129.783,108.841 129.616,108.853 129.641 C 109.309 130.629,109.184 131.614,108.668 131.099 C 108.599 131.029,108.542 131.070,108.542 131.190 C 108.542 131.309,108.260 131.383,107.917 131.354 C 107.174 131.291,107.115 131.403,107.760 131.653 C 108.100 131.785,108.424 131.723,108.935 131.429 L 109.640 131.022 110.133 131.485 C 110.840 132.150,110.745 132.452,109.740 132.723 C 104.496 134.142,100.426 127.909,103.965 123.879 C 105.609 122.006,108.480 121.406,110.605 122.490 M19.792 142.500 C 19.792 142.944,20.204 143.096,20.215 142.656 C 20.218 142.513,20.320 142.566,20.440 142.773 C 20.561 142.981,20.607 143.287,20.543 143.455 C 20.479 143.622,20.743 144.174,21.131 144.683 C 23.436 147.702,22.491 151.961,19.140 153.659 C 17.801 154.338,17.586 154.299,18.204 153.489 C 18.694 152.847,19.255 151.667,19.071 151.667 C 19.024 151.667,18.738 151.761,18.437 151.875 C 17.785 152.123,16.810 151.928,16.945 151.576 C 17.007 151.414,16.850 151.353,16.489 151.399 C 15.843 151.482,14.872 151.013,14.949 150.655 C 14.979 150.519,14.780 150.323,14.508 150.219 C 14.053 150.046,13.123 149.073,13.127 148.774 C 13.128 148.704,13.581 148.630,14.135 148.610 C 15.137 148.575,16.337 148.179,17.247 147.584 L 17.723 147.272 17.299 146.733 C 16.379 145.563,17.195 143.333,18.544 143.333 C 18.853 143.333,19.068 143.138,19.230 142.708 C 19.500 141.994,19.792 141.885,19.792 142.500 M61.668 152.363 C 61.998 153.589,62.191 153.678,63.547 153.227 C 64.132 153.033,64.638 152.907,64.673 152.948 C 64.925 153.245,66.446 158.331,66.354 158.571 C 66.148 159.108,60.683 160.775,60.333 160.408 C 59.972 160.030,57.661 153.004,57.748 152.552 C 57.816 152.203,61.043 150.986,61.271 151.224 C 61.340 151.295,61.519 151.808,61.668 152.363 M63.391 151.697 L 64.688 152.353 63.558 152.739 C 62.937 152.950,62.412 153.101,62.391 153.072 C 62.164 152.771,61.741 151.042,61.894 151.042 C 62.004 151.042,62.678 151.337,63.391 151.697 M62.821 155.402 C 62.755 155.509,62.895 155.732,63.132 155.898 C 63.459 156.127,63.529 156.331,63.425 156.746 C 63.233 157.510,63.660 157.445,64.073 156.647 C 64.256 156.293,64.375 155.983,64.338 155.959 C 63.090 155.151,62.998 155.117,62.821 155.402 M60.956 156.012 C 60.379 156.946,60.420 157.300,61.146 157.646 C 61.975 158.041,62.418 157.818,61.728 157.354 C 61.368 157.112,61.295 156.913,61.389 156.439 C 61.503 155.869,61.218 155.588,60.956 156.012 M35.246 192.448 C 35.847 193.152,37.708 196.370,37.708 196.705 C 37.708 197.110,33.647 199.668,33.247 199.515 C 32.698 199.304,30.332 195.181,30.556 194.826 C 30.748 194.521,34.530 192.084,34.811 192.084 C 34.880 192.083,35.075 192.247,35.246 192.448 M33.148 194.509 C 32.970 194.711,32.938 194.887,33.064 194.970 C 33.551 195.289,33.555 196.755,33.069 197.131 C 32.307 197.721,33.035 197.548,34.066 196.894 C 34.592 196.561,34.942 196.239,34.845 196.179 C 34.747 196.118,34.531 196.155,34.365 196.261 C 33.829 196.600,33.750 196.479,33.750 195.313 C 33.750 194.118,33.633 193.962,33.148 194.509 M34.063 195.234 C 34.187 195.556,35.669 196.458,36.073 196.458 C 36.265 196.458,36.272 196.397,36.100 196.225 C 35.971 196.096,35.917 195.857,35.980 195.693 C 36.068 195.465,35.972 195.426,35.567 195.528 C 35.228 195.613,34.844 195.533,34.495 195.304 C 34.096 195.043,33.981 195.024,34.063 195.234 M80.625 202.382 C 80.625 203.057,80.647 203.074,81.658 203.171 C 82.733 203.275,84.263 204.191,84.112 204.642 C 84.027 204.899,77.599 209.375,77.315 209.375 C 76.749 209.375,76.490 206.831,76.953 205.811 C 77.065 205.564,76.939 205.408,76.469 205.213 C 76.119 205.068,75.833 204.867,75.833 204.766 C 75.833 204.514,75.969 204.535,76.671 204.898 C 77.250 205.197,77.295 205.188,77.609 204.709 C 77.790 204.433,78.449 203.940,79.073 203.614 C 80.144 203.054,80.207 202.977,80.208 202.227 C 80.208 201.751,80.292 201.485,80.417 201.563 C 80.531 201.633,80.625 202.002,80.625 202.382 M81.250 204.688 C 81.250 204.859,81.344 205.000,81.458 205.000 C 81.573 205.000,81.667 204.859,81.667 204.688 C 81.667 204.516,81.573 204.375,81.458 204.375 C 81.344 204.375,81.250 204.516,81.250 204.688 M77.917 206.875 C 77.917 206.990,78.057 207.083,78.229 207.083 C 78.401 207.083,78.542 206.990,78.542 206.875 C 78.542 206.760,78.401 206.667,78.229 206.667 C 78.057 206.667,77.917 206.760,77.917 206.875 " stroke="none" fill="#24242c" fill-rule="evenodd"></path><path id="path1" d="M12.390 14.592 C 12.124 15.023,12.738 15.363,14.249 15.621 C 16.442 15.996,16.382 15.916,15.952 17.906 C 15.572 19.668,15.612 20.208,16.122 20.208 C 16.314 20.208,16.500 19.848,16.632 19.219 C 17.237 16.351,17.340 15.590,17.152 15.402 C 17.011 15.261,13.054 14.375,12.565 14.375 C 12.543 14.375,12.464 14.473,12.390 14.592 M20.469 16.278 C 18.636 17.496,18.261 17.927,18.765 18.239 C 19.066 18.425,23.175 15.671,23.070 15.354 C 22.897 14.836,22.340 15.034,20.469 16.278 M92.128 70.101 C 90.614 72.333,89.375 74.292,89.375 74.453 C 89.375 74.867,90.025 75.068,90.323 74.747 C 91.188 73.815,95.853 66.601,95.755 66.346 C 95.430 65.500,94.819 66.133,92.128 70.101 M88.021 67.450 C 86.248 68.397,86.199 68.592,87.254 70.521 C 88.469 72.743,89.570 72.528,88.469 70.284 C 87.751 68.819,87.720 68.913,89.178 68.136 C 90.054 67.669,90.420 67.357,90.374 67.117 C 90.263 66.534,89.546 66.636,88.021 67.450 M96.250 69.382 C 96.250 69.615,96.484 70.268,96.771 70.833 C 97.432 72.137,97.495 71.975,96.042 72.708 C 94.792 73.339,94.378 74.021,95.082 74.291 C 95.547 74.470,98.750 72.766,98.747 72.341 C 98.742 71.628,97.094 68.958,96.660 68.958 C 96.387 68.958,96.250 69.100,96.250 69.382 M106.331 122.360 C 101.090 124.336,101.755 131.540,107.289 132.727 C 109.356 133.170,110.963 132.500,110.137 131.539 L 109.643 130.965 109.054 131.428 C 108.613 131.774,108.310 131.857,107.852 131.757 C 107.516 131.683,107.114 131.604,106.959 131.581 C 106.412 131.501,106.417 131.268,106.970 131.130 C 107.285 131.051,107.628 131.086,107.752 131.210 C 108.054 131.512,108.958 130.909,108.958 130.405 C 108.958 129.848,108.607 129.723,108.079 130.092 C 107.186 130.717,105.000 129.868,105.000 128.896 C 105.000 128.771,104.757 128.317,104.459 127.888 C 103.854 127.015,103.910 126.757,104.742 126.571 C 105.387 126.426,107.708 124.320,107.708 123.880 C 107.708 123.275,108.248 123.102,108.666 123.571 C 108.884 123.816,109.370 124.146,109.746 124.305 C 111.077 124.868,111.633 126.541,110.828 127.563 L 110.407 128.099 111.479 129.102 C 112.758 130.299,112.905 130.321,113.247 129.375 C 114.765 125.168,110.460 120.802,106.331 122.360 M32.556 193.499 C 30.159 194.981,30.209 194.749,31.737 197.261 C 33.260 199.765,33.157 199.741,35.642 198.196 C 38.016 196.721,37.975 196.916,36.436 194.404 C 34.914 191.921,35.055 191.954,32.556 193.499 M33.750 194.700 C 33.750 195.017,33.838 195.179,33.967 195.099 C 34.087 195.025,34.416 195.116,34.699 195.301 C 35.083 195.552,35.314 195.583,35.614 195.422 C 36.041 195.194,36.434 195.487,36.033 195.735 C 35.887 195.825,35.934 195.965,36.165 196.134 C 36.647 196.487,36.194 196.763,35.629 196.461 C 35.030 196.140,33.821 196.985,33.919 197.656 C 33.995 198.178,33.596 198.301,33.409 197.814 C 33.343 197.642,33.212 197.550,33.118 197.609 C 33.023 197.667,32.879 197.608,32.798 197.476 C 32.716 197.344,32.804 197.151,32.992 197.046 C 33.474 196.776,33.457 195.303,32.969 195.011 C 32.626 194.805,32.628 194.774,33.009 194.479 C 33.580 194.038,33.750 194.088,33.750 194.700 M33.958 195.963 C 33.958 196.427,34.006 196.470,34.273 196.248 C 34.513 196.049,34.532 195.918,34.352 195.702 C 34.019 195.301,33.958 195.341,33.958 195.963 " stroke="none" fill="#66a8aa" fill-rule="evenodd"></path><path id="path2" d="M61.989 151.498 C 62.477 153.064,62.496 153.076,63.750 152.620 L 64.479 152.355 63.159 151.686 C 61.865 151.031,61.842 151.027,61.989 151.498 M59.409 151.741 C 58.683 151.994,58.013 152.338,57.922 152.506 C 57.699 152.914,60.103 160.332,60.508 160.487 C 61.126 160.724,66.139 158.863,66.212 158.369 C 66.378 157.246,64.727 153.087,64.169 153.221 C 63.881 153.290,63.268 153.400,62.805 153.466 L 61.965 153.586 61.597 152.418 C 61.183 151.104,61.215 151.114,59.409 151.741 M63.953 155.613 C 64.477 156.017,64.167 157.500,63.557 157.500 C 63.209 157.500,63.098 157.106,63.326 156.680 C 63.505 156.345,63.468 156.225,63.128 156.043 C 62.612 155.767,62.575 155.207,63.073 155.213 C 63.273 155.216,63.669 155.396,63.953 155.613 M61.511 156.531 C 61.310 156.971,61.346 157.060,61.808 157.271 C 62.232 157.464,62.286 157.568,62.088 157.807 C 61.298 158.759,60.090 157.138,60.860 156.159 C 61.407 155.464,61.875 155.732,61.511 156.531 M79.712 203.451 C 78.919 203.742,77.235 205.139,77.139 205.587 C 77.112 205.712,77.012 206.170,76.918 206.605 C 76.733 207.458,76.987 209.167,77.299 209.167 C 77.576 209.167,83.958 204.756,83.958 204.565 C 83.958 203.661,81.149 202.924,79.712 203.451 M81.805 204.493 C 81.979 204.946,81.538 205.371,81.222 205.056 C 80.956 204.789,81.121 204.167,81.458 204.167 C 81.580 204.167,81.736 204.314,81.805 204.493 M78.646 206.875 C 78.646 207.044,78.482 207.213,78.281 207.252 C 78.025 207.301,77.917 207.189,77.917 206.875 C 77.917 206.561,78.025 206.449,78.281 206.498 C 78.482 206.537,78.646 206.706,78.646 206.875 " stroke="none" fill="#b1724b" fill-rule="evenodd"></path><path id="path3" d="M75.043 18.264 C 74.666 18.450,74.193 18.812,73.991 19.068 C 73.647 19.505,73.587 19.515,73.029 19.222 C 70.938 18.126,69.820 18.873,70.401 20.976 C 70.569 21.583,70.560 21.791,70.362 21.855 C 69.929 21.997,68.542 23.473,68.542 23.793 C 68.542 24.237,69.369 24.913,70.260 25.199 C 70.964 25.424,71.042 25.520,71.042 26.169 C 71.042 28.325,72.227 28.956,73.728 27.599 L 74.541 26.864 75.280 27.300 C 76.915 28.265,78.060 27.472,77.703 25.625 C 77.555 24.861,77.582 24.649,77.851 24.479 C 79.894 23.189,79.925 21.827,77.926 21.228 C 77.152 20.996,77.120 20.949,76.983 19.852 C 76.767 18.130,76.222 17.683,75.043 18.264 M76.216 18.605 C 76.340 18.754,76.469 19.293,76.502 19.803 L 76.563 20.729 75.723 20.791 C 74.640 20.871,73.696 20.047,74.188 19.452 C 74.880 18.614,75.878 18.197,76.216 18.605 M72.899 19.631 C 73.466 20.028,72.839 21.023,71.792 21.385 C 71.089 21.628,71.066 21.619,70.848 20.995 C 70.228 19.215,71.293 18.506,72.899 19.631 M74.264 20.844 C 73.991 21.286,73.094 21.072,73.335 20.622 C 73.517 20.281,73.637 20.244,73.973 20.424 C 74.200 20.546,74.332 20.735,74.264 20.844 M75.468 22.118 C 76.510 23.406,75.731 25.000,74.058 25.000 C 71.812 25.000,71.438 21.732,73.646 21.402 C 74.656 21.251,74.819 21.315,75.468 22.118 M76.455 21.510 C 76.447 22.180,76.104 22.314,75.756 21.783 C 75.413 21.260,75.417 21.250,75.933 21.250 C 76.222 21.250,76.457 21.367,76.455 21.510 M78.234 21.787 C 79.247 22.268,79.291 22.646,78.426 23.462 C 77.510 24.326,77.435 24.328,76.922 23.518 C 76.071 22.174,76.859 21.134,78.234 21.787 M71.958 22.404 C 71.822 22.948,71.796 22.959,71.532 22.597 C 71.159 22.087,71.176 21.922,71.615 21.824 C 72.109 21.714,72.125 21.741,71.958 22.404 M71.239 22.890 C 71.499 23.517,71.347 25.000,71.023 25.000 C 70.567 25.000,69.186 24.310,69.078 24.028 C 68.667 22.956,70.801 21.832,71.239 22.890 M73.375 22.542 C 73.030 22.887,73.062 23.646,73.435 23.956 C 74.222 24.609,75.443 23.388,74.789 22.601 C 74.480 22.228,73.720 22.196,73.375 22.542 M76.752 24.406 C 76.442 24.907,75.843 24.582,76.088 24.044 C 76.314 23.549,76.354 23.534,76.597 23.867 C 76.743 24.065,76.812 24.308,76.752 24.406 M72.292 24.583 C 72.481 24.937,72.450 25.000,72.091 25.000 C 71.806 25.000,71.667 24.864,71.667 24.583 C 71.667 24.354,71.757 24.167,71.868 24.167 C 71.978 24.167,72.169 24.354,72.292 24.583 M77.199 25.284 C 77.655 27.101,76.577 27.897,75.151 26.795 C 74.431 26.238,75.555 24.979,76.923 24.810 C 77.007 24.800,77.131 25.013,77.199 25.284 M73.638 26.033 L 74.229 26.650 73.551 27.283 C 72.361 28.394,71.458 27.957,71.458 26.271 C 71.458 25.170,72.683 25.036,73.638 26.033 M74.772 25.781 C 74.618 25.982,74.481 26.170,74.467 26.199 C 74.453 26.229,74.272 26.064,74.064 25.835 C 73.692 25.424,73.698 25.417,74.368 25.417 C 74.986 25.417,75.024 25.451,74.772 25.781 M40.313 102.083 C 40.388 102.427,40.372 102.710,40.277 102.711 C 40.182 102.713,39.893 102.771,39.635 102.840 C 39.302 102.929,39.167 102.875,39.167 102.654 C 39.167 102.483,39.010 102.214,38.819 102.057 C 38.504 101.797,38.484 101.834,38.607 102.455 C 38.727 103.060,38.679 103.162,38.190 103.348 C 37.624 103.564,37.302 103.352,37.295 102.760 C 37.293 102.617,37.214 102.500,37.118 102.500 C 36.777 102.500,36.696 102.759,36.883 103.251 C 36.996 103.547,36.996 103.750,36.885 103.750 C 36.492 103.750,36.042 104.429,36.042 105.020 C 36.042 105.493,35.915 105.684,35.492 105.844 C 34.857 106.086,35.005 106.354,35.774 106.354 C 36.567 106.354,36.849 107.233,36.142 107.502 C 35.432 107.771,35.462 108.211,36.178 108.031 C 36.538 107.941,36.792 107.988,36.904 108.165 C 37.205 108.639,37.098 109.114,36.667 109.227 C 36.438 109.287,36.250 109.449,36.250 109.586 C 36.250 109.751,36.433 109.791,36.787 109.702 C 37.207 109.597,37.414 109.682,37.739 110.096 C 38.011 110.442,38.361 110.625,38.751 110.625 C 39.164 110.625,39.388 110.753,39.479 111.042 C 39.692 111.713,40.068 111.538,39.927 110.833 C 39.858 110.490,39.870 110.207,39.953 110.205 C 40.036 110.204,40.306 110.148,40.553 110.082 C 40.886 109.993,41.037 110.074,41.140 110.398 C 41.216 110.637,41.410 110.833,41.571 110.833 C 41.799 110.833,41.820 110.715,41.664 110.306 C 41.489 109.846,41.531 109.754,41.996 109.577 C 42.707 109.306,42.690 109.300,42.921 109.908 C 43.154 110.520,43.626 110.385,43.428 109.762 C 43.337 109.475,43.466 109.196,43.857 108.834 C 44.265 108.455,44.383 108.186,44.295 107.835 C 44.202 107.463,44.291 107.302,44.691 107.119 C 45.415 106.790,45.335 106.495,44.531 106.532 C 43.695 106.570,43.373 105.564,44.155 105.359 C 44.842 105.180,44.682 104.737,43.985 104.890 C 43.482 105.000,43.367 104.945,43.259 104.542 C 43.069 103.831,43.080 103.806,43.654 103.662 C 43.953 103.587,44.124 103.433,44.048 103.309 C 43.973 103.188,43.718 103.139,43.481 103.201 C 43.192 103.277,42.895 103.146,42.577 102.803 C 42.282 102.484,41.873 102.292,41.493 102.292 C 41.057 102.292,40.851 102.172,40.773 101.875 C 40.590 101.177,40.156 101.373,40.313 102.083 M42.430 105.719 C 42.811 106.860,43.050 107.867,42.959 107.958 C 42.765 108.152,39.205 109.375,38.834 109.375 C 38.506 109.375,37.044 105.049,37.315 104.882 C 37.812 104.574,40.979 103.569,41.337 103.606 C 41.646 103.637,41.891 104.110,42.430 105.719 M39.412 104.863 C 37.869 105.402,37.931 105.240,38.536 107.170 L 39.014 108.694 40.653 108.157 C 41.554 107.862,42.292 107.564,42.292 107.496 C 42.292 106.966,41.255 104.471,41.023 104.441 C 40.861 104.420,40.136 104.610,39.412 104.863 M19.382 142.750 C 19.217 143.091,18.876 143.364,18.519 143.443 C 17.128 143.748,16.515 145.345,17.297 146.627 C 17.528 147.006,17.675 147.385,17.624 147.468 C 17.385 147.855,15.508 148.584,14.478 148.690 C 13.848 148.755,13.333 148.881,13.333 148.969 C 13.333 149.318,14.648 150.209,15.172 150.215 C 15.681 150.221,15.698 150.245,15.362 150.500 C 14.763 150.955,15.416 151.328,16.582 151.196 C 17.269 151.119,17.473 151.152,17.310 151.315 C 16.759 151.866,17.881 152.132,18.764 151.659 C 19.362 151.339,19.296 152.043,18.636 153.016 C 17.977 153.987,18.071 154.102,19.094 153.574 C 22.362 151.888,23.307 147.587,21.033 144.752 C 20.635 144.255,20.414 143.738,20.410 143.293 C 20.405 142.665,20.382 142.641,20.157 143.021 C 19.923 143.414,19.902 143.402,19.782 142.813 L 19.655 142.188 19.382 142.750 " stroke="none" fill="#4b63b9" fill-rule="evenodd"></path><path id="path4" d="M100.156 34.380 C 96.771 37.336,96.807 37.214,98.685 39.351 C 101.013 42.003,100.518 42.032,103.976 39.042 C 107.613 35.898,107.548 36.122,105.514 33.769 C 103.438 31.367,103.631 31.345,100.156 34.380 M103.889 33.245 C 103.959 33.426,103.856 33.731,103.662 33.922 C 103.205 34.372,102.534 33.690,102.946 33.194 C 103.258 32.818,103.735 32.844,103.889 33.245 M102.917 34.598 C 102.917 34.986,102.288 35.256,101.979 35.000 C 101.563 34.654,101.584 34.235,102.031 33.978 C 102.376 33.779,102.917 34.158,102.917 34.598 M104.789 34.268 C 105.095 34.637,104.926 35.208,104.511 35.208 C 103.998 35.208,103.658 34.633,103.958 34.271 C 104.284 33.878,104.465 33.877,104.789 34.268 M101.574 35.156 C 102.037 35.789,101.232 36.357,100.670 35.795 C 100.479 35.604,100.501 35.461,100.764 35.170 C 101.186 34.703,101.243 34.702,101.574 35.156 M103.750 35.313 C 104.042 35.665,103.715 36.250,103.226 36.250 C 102.846 36.250,102.659 35.623,102.939 35.286 C 103.243 34.919,103.429 34.925,103.750 35.313 M105.842 35.531 C 106.282 36.062,105.558 36.689,105.070 36.201 C 104.729 35.860,104.957 35.208,105.417 35.208 C 105.503 35.208,105.695 35.354,105.842 35.531 M100.425 36.156 C 100.865 36.687,100.142 37.314,99.653 36.826 C 99.313 36.485,99.541 35.833,100.000 35.833 C 100.087 35.833,100.278 35.979,100.425 36.156 M102.639 36.370 C 102.709 36.551,102.606 36.856,102.412 37.047 C 101.955 37.497,101.284 36.815,101.696 36.319 C 102.008 35.943,102.485 35.969,102.639 36.370 M104.761 37.016 C 103.668 38.333,102.046 39.427,101.706 39.076 C 101.165 38.520,104.052 35.873,104.629 36.396 C 104.913 36.653,104.944 36.796,104.761 37.016 M99.384 37.198 C 99.819 37.723,99.101 38.357,98.617 37.873 C 98.239 37.495,98.366 36.875,98.822 36.875 C 98.984 36.875,99.236 37.020,99.384 37.198 M101.477 37.327 C 101.678 37.701,101.655 37.827,101.346 38.053 C 100.696 38.528,100.091 37.701,100.667 37.125 C 101.023 36.768,101.202 36.813,101.477 37.327 M100.324 38.281 C 100.787 38.914,99.982 39.482,99.420 38.920 C 99.229 38.729,99.251 38.586,99.514 38.295 C 99.936 37.828,99.993 37.827,100.324 38.281 M101.389 39.495 C 101.459 39.676,101.363 39.977,101.176 40.163 C 100.747 40.592,100.069 39.898,100.459 39.428 C 100.759 39.066,101.238 39.101,101.389 39.495 M27.188 56.590 C 25.927 57.112,24.813 57.618,24.711 57.715 C 24.469 57.945,25.800 61.250,26.135 61.250 C 26.618 61.250,26.634 61.000,26.214 60.033 C 25.329 57.993,25.208 58.259,27.460 57.309 C 29.995 56.240,29.861 56.222,30.418 57.713 C 30.917 59.047,31.160 59.340,31.493 59.007 C 31.630 58.870,31.476 58.263,31.039 57.213 C 30.238 55.289,30.304 55.300,27.188 56.590 M28.542 57.894 C 28.542 57.997,28.675 58.132,28.838 58.194 C 29.019 58.264,29.091 58.474,29.022 58.737 C 28.864 59.340,29.259 59.274,29.544 58.650 C 29.743 58.211,29.719 58.101,29.382 57.921 C 28.893 57.659,28.542 57.648,28.542 57.894 M27.035 58.669 C 26.793 59.199,27.170 59.792,27.748 59.792 C 28.027 59.792,27.938 59.370,27.635 59.254 C 27.463 59.188,27.391 58.947,27.451 58.635 C 27.579 57.965,27.347 57.983,27.035 58.669 M28.854 60.556 C 24.971 62.163,25.376 61.944,25.532 62.350 C 25.773 62.977,26.252 62.886,29.312 61.628 C 32.415 60.352,32.982 59.997,32.776 59.459 C 32.608 59.023,32.463 59.063,28.854 60.556 " stroke="none" fill="#684832" fill-rule="evenodd"></path><path id="path5" d="M107.166 131.191 C 107.488 131.274,107.507 131.330,107.270 131.495 C 107.024 131.667,107.025 131.686,107.279 131.617 C 107.796 131.478,107.779 131.040,107.257 131.066 C 106.858 131.086,106.842 131.108,107.166 131.191 M33.798 195.833 C 33.798 196.234,33.841 196.398,33.894 196.198 C 33.946 195.997,33.946 195.669,33.894 195.469 C 33.841 195.268,33.798 195.432,33.798 195.833 M80.247 202.539 C 80.272 202.961,80.367 203.260,80.458 203.203 C 80.687 203.062,80.662 202.461,80.411 202.083 C 80.256 201.851,80.214 201.968,80.247 202.539 M81.112 204.493 C 80.930 204.967,81.383 205.367,81.719 205.029 C 81.928 204.819,81.907 204.794,81.615 204.906 C 81.189 205.068,81.086 204.476,81.510 204.305 C 81.714 204.222,81.713 204.196,81.504 204.183 C 81.357 204.174,81.181 204.314,81.112 204.493 " stroke="none" fill="#326267" fill-rule="evenodd"></path><path id="path6" d="M74.370 19.277 L 73.875 19.803 74.484 20.370 L 75.092 20.938 74.593 20.365 L 74.094 19.792 74.583 19.271 C 74.852 18.984,75.026 18.750,74.968 18.750 C 74.911 18.750,74.642 18.987,74.370 19.277 M71.589 25.581 C 71.533 25.672,71.815 25.708,72.215 25.661 C 72.763 25.597,73.080 25.698,73.502 26.069 L 74.063 26.563 73.557 25.990 C 73.063 25.429,71.840 25.175,71.589 25.581 M73.943 27.448 L 73.438 28.021 74.063 27.500 C 74.406 27.214,74.727 26.956,74.774 26.927 C 74.822 26.898,74.768 26.875,74.654 26.875 C 74.541 26.875,74.220 27.133,73.943 27.448 " stroke="none" fill="#31416a" fill-rule="evenodd"></path><path id="path7" d="M104.000 34.208 C 103.863 34.346,103.750 34.551,103.750 34.665 C 103.750 34.778,103.880 34.693,104.040 34.475 C 104.299 34.121,104.372 34.111,104.717 34.383 C 105.073 34.663,105.081 34.658,104.818 34.323 C 104.481 33.893,104.336 33.872,104.000 34.208 M101.927 34.900 C 102.286 35.291,102.297 35.291,102.656 34.900 C 103.003 34.521,103.003 34.515,102.656 34.777 C 102.355 35.004,102.229 35.004,101.927 34.777 C 101.580 34.515,101.580 34.521,101.927 34.900 " stroke="none" fill="#423935" fill-rule="evenodd"></path><path id="path8" d="M113.590 127.500 C 113.590 127.901,113.633 128.065,113.685 127.865 C 113.738 127.664,113.738 127.336,113.685 127.135 C 113.633 126.935,113.590 127.099,113.590 127.500 M22.344 148.438 C 22.347 148.896,22.389 149.059,22.439 148.800 C 22.489 148.541,22.487 148.166,22.435 147.966 C 22.383 147.767,22.342 147.979,22.344 148.438 " stroke="none" fill="#2d4047" fill-rule="evenodd"></path></g></svg>